<mxfile host="app.diagrams.net" agent="Mozilla/5.0 (Windows NT 10.0; Win64; x64) AppleWebKit/537.36 (KHTML, like Gecko) Chrome/131.0.0.0 Safari/537.36" version="25.0.3">
  <diagram name="Страница — 1" id="O1wBWNtwzzCgPNyblacY">
    <mxGraphModel dx="1687" dy="918" grid="1" gridSize="10" guides="1" tooltips="1" connect="1" arrows="1" fold="1" page="1" pageScale="1" pageWidth="827" pageHeight="1169" math="0" shadow="0">
      <root>
        <mxCell id="0" />
        <mxCell id="1" parent="0" />
        <mxCell id="iM3YfhOh1Oi1pRqdzWGs-1" value="Пользователь" style="shape=umlActor;verticalLabelPosition=bottom;verticalAlign=top;html=1;outlineConnect=0;" vertex="1" parent="1">
          <mxGeometry x="80" y="140" width="30" height="60" as="geometry" />
        </mxCell>
        <mxCell id="iM3YfhOh1Oi1pRqdzWGs-2" value="Пользователь" style="shape=umlActor;verticalLabelPosition=bottom;verticalAlign=top;html=1;outlineConnect=0;" vertex="1" parent="1">
          <mxGeometry x="80" y="830" width="30" height="60" as="geometry" />
        </mxCell>
        <mxCell id="iM3YfhOh1Oi1pRqdzWGs-3" style="edgeStyle=orthogonalEdgeStyle;rounded=0;orthogonalLoop=1;jettySize=auto;html=1;entryX=0.5;entryY=0;entryDx=0;entryDy=0;entryPerimeter=0;endArrow=none;endFill=0;dashed=1;" edge="1" parent="1" source="iM3YfhOh1Oi1pRqdzWGs-1" target="iM3YfhOh1Oi1pRqdzWGs-2">
          <mxGeometry relative="1" as="geometry" />
        </mxCell>
        <mxCell id="iM3YfhOh1Oi1pRqdzWGs-7" style="edgeStyle=orthogonalEdgeStyle;rounded=0;orthogonalLoop=1;jettySize=auto;html=1;exitX=0.5;exitY=1;exitDx=0;exitDy=0;entryX=0.5;entryY=0;entryDx=0;entryDy=0;dashed=1;endArrow=none;endFill=0;" edge="1" parent="1" source="iM3YfhOh1Oi1pRqdzWGs-5" target="iM3YfhOh1Oi1pRqdzWGs-6">
          <mxGeometry relative="1" as="geometry" />
        </mxCell>
        <mxCell id="iM3YfhOh1Oi1pRqdzWGs-5" value=":StudentApp" style="rounded=0;whiteSpace=wrap;html=1;" vertex="1" parent="1">
          <mxGeometry x="220" y="140" width="120" height="60" as="geometry" />
        </mxCell>
        <mxCell id="iM3YfhOh1Oi1pRqdzWGs-6" value="StudentApp" style="rounded=0;whiteSpace=wrap;html=1;" vertex="1" parent="1">
          <mxGeometry x="220" y="860" width="120" height="60" as="geometry" />
        </mxCell>
        <mxCell id="iM3YfhOh1Oi1pRqdzWGs-10" style="edgeStyle=orthogonalEdgeStyle;rounded=0;orthogonalLoop=1;jettySize=auto;html=1;exitX=0.5;exitY=1;exitDx=0;exitDy=0;entryX=0.5;entryY=0;entryDx=0;entryDy=0;dashed=1;endArrow=none;endFill=0;" edge="1" parent="1" source="iM3YfhOh1Oi1pRqdzWGs-8" target="iM3YfhOh1Oi1pRqdzWGs-9">
          <mxGeometry relative="1" as="geometry" />
        </mxCell>
        <mxCell id="iM3YfhOh1Oi1pRqdzWGs-8" value=":StudentListController" style="rounded=0;whiteSpace=wrap;html=1;" vertex="1" parent="1">
          <mxGeometry x="460" y="140" width="120" height="60" as="geometry" />
        </mxCell>
        <mxCell id="iM3YfhOh1Oi1pRqdzWGs-9" value="StudentListController" style="rounded=0;whiteSpace=wrap;html=1;" vertex="1" parent="1">
          <mxGeometry x="460" y="860" width="120" height="60" as="geometry" />
        </mxCell>
        <mxCell id="iM3YfhOh1Oi1pRqdzWGs-11" value="" style="endArrow=classic;html=1;rounded=0;" edge="1" parent="1">
          <mxGeometry width="50" height="50" relative="1" as="geometry">
            <mxPoint x="100" y="240" as="sourcePoint" />
            <mxPoint x="280" y="240" as="targetPoint" />
          </mxGeometry>
        </mxCell>
        <mxCell id="iM3YfhOh1Oi1pRqdzWGs-12" value="Открыть приложение" style="text;html=1;align=center;verticalAlign=middle;resizable=0;points=[];autosize=1;strokeColor=none;fillColor=none;" vertex="1" parent="1">
          <mxGeometry x="120" y="220" width="140" height="30" as="geometry" />
        </mxCell>
        <mxCell id="iM3YfhOh1Oi1pRqdzWGs-13" value="" style="endArrow=classic;html=1;rounded=0;" edge="1" parent="1">
          <mxGeometry width="50" height="50" relative="1" as="geometry">
            <mxPoint x="280" y="270" as="sourcePoint" />
            <mxPoint x="520" y="270" as="targetPoint" />
          </mxGeometry>
        </mxCell>
        <mxCell id="iM3YfhOh1Oi1pRqdzWGs-14" value="new()" style="text;html=1;align=center;verticalAlign=middle;resizable=0;points=[];autosize=1;strokeColor=none;fillColor=none;" vertex="1" parent="1">
          <mxGeometry x="365" y="238" width="50" height="30" as="geometry" />
        </mxCell>
        <mxCell id="iM3YfhOh1Oi1pRqdzWGs-17" style="edgeStyle=orthogonalEdgeStyle;rounded=0;orthogonalLoop=1;jettySize=auto;html=1;exitX=0.5;exitY=1;exitDx=0;exitDy=0;entryX=0.5;entryY=0;entryDx=0;entryDy=0;dashed=1;endArrow=none;endFill=0;" edge="1" parent="1" source="iM3YfhOh1Oi1pRqdzWGs-15" target="iM3YfhOh1Oi1pRqdzWGs-16">
          <mxGeometry relative="1" as="geometry" />
        </mxCell>
        <mxCell id="iM3YfhOh1Oi1pRqdzWGs-15" value=":List_adapter" style="rounded=0;whiteSpace=wrap;html=1;" vertex="1" parent="1">
          <mxGeometry x="690" y="140" width="120" height="60" as="geometry" />
        </mxCell>
        <mxCell id="iM3YfhOh1Oi1pRqdzWGs-16" value="List_adapter" style="rounded=0;whiteSpace=wrap;html=1;" vertex="1" parent="1">
          <mxGeometry x="690" y="860" width="120" height="60" as="geometry" />
        </mxCell>
        <mxCell id="iM3YfhOh1Oi1pRqdzWGs-18" value="" style="endArrow=classic;html=1;rounded=0;" edge="1" parent="1">
          <mxGeometry width="50" height="50" relative="1" as="geometry">
            <mxPoint x="520" y="300" as="sourcePoint" />
            <mxPoint x="750" y="300" as="targetPoint" />
          </mxGeometry>
        </mxCell>
        <mxCell id="iM3YfhOh1Oi1pRqdzWGs-19" value="new()" style="text;html=1;align=center;verticalAlign=middle;resizable=0;points=[];autosize=1;strokeColor=none;fillColor=none;" vertex="1" parent="1">
          <mxGeometry x="610" y="268" width="50" height="30" as="geometry" />
        </mxCell>
        <mxCell id="iM3YfhOh1Oi1pRqdzWGs-20" value="" style="endArrow=none;html=1;rounded=0;dashed=1;startArrow=classic;startFill=1;endFill=0;" edge="1" parent="1">
          <mxGeometry width="50" height="50" relative="1" as="geometry">
            <mxPoint x="520" y="350" as="sourcePoint" />
            <mxPoint x="750" y="350" as="targetPoint" />
          </mxGeometry>
        </mxCell>
        <mxCell id="iM3YfhOh1Oi1pRqdzWGs-21" value="return" style="text;html=1;align=center;verticalAlign=middle;resizable=0;points=[];autosize=1;strokeColor=none;fillColor=none;" vertex="1" parent="1">
          <mxGeometry x="610" y="318" width="50" height="30" as="geometry" />
        </mxCell>
        <mxCell id="iM3YfhOh1Oi1pRqdzWGs-22" value="" style="endArrow=none;html=1;rounded=0;dashed=1;startArrow=classic;startFill=1;endFill=0;" edge="1" parent="1">
          <mxGeometry width="50" height="50" relative="1" as="geometry">
            <mxPoint x="280" y="380" as="sourcePoint" />
            <mxPoint x="520" y="380" as="targetPoint" />
          </mxGeometry>
        </mxCell>
        <mxCell id="iM3YfhOh1Oi1pRqdzWGs-23" value="return" style="text;html=1;align=center;verticalAlign=middle;resizable=0;points=[];autosize=1;strokeColor=none;fillColor=none;" vertex="1" parent="1">
          <mxGeometry x="365" y="348" width="50" height="30" as="geometry" />
        </mxCell>
        <mxCell id="iM3YfhOh1Oi1pRqdzWGs-24" value="" style="endArrow=classic;html=1;rounded=0;" edge="1" parent="1">
          <mxGeometry width="50" height="50" relative="1" as="geometry">
            <mxPoint x="280" y="450" as="sourcePoint" />
            <mxPoint x="520" y="450" as="targetPoint" />
          </mxGeometry>
        </mxCell>
        <mxCell id="iM3YfhOh1Oi1pRqdzWGs-25" value="refresh_data" style="text;html=1;align=center;verticalAlign=middle;resizable=0;points=[];autosize=1;strokeColor=none;fillColor=none;" vertex="1" parent="1">
          <mxGeometry x="345" y="418" width="90" height="30" as="geometry" />
        </mxCell>
        <mxCell id="iM3YfhOh1Oi1pRqdzWGs-26" value="" style="endArrow=classic;html=1;rounded=0;" edge="1" parent="1">
          <mxGeometry width="50" height="50" relative="1" as="geometry">
            <mxPoint x="520" y="490" as="sourcePoint" />
            <mxPoint x="750" y="490" as="targetPoint" />
          </mxGeometry>
        </mxCell>
        <mxCell id="iM3YfhOh1Oi1pRqdzWGs-27" value="get_k_n_student_short_list(k, n)" style="text;html=1;align=center;verticalAlign=middle;resizable=0;points=[];autosize=1;strokeColor=none;fillColor=none;" vertex="1" parent="1">
          <mxGeometry x="530" y="460" width="190" height="30" as="geometry" />
        </mxCell>
        <mxCell id="iM3YfhOh1Oi1pRqdzWGs-28" value="" style="endArrow=none;html=1;rounded=0;dashed=1;startArrow=classic;startFill=1;endFill=0;" edge="1" parent="1">
          <mxGeometry width="50" height="50" relative="1" as="geometry">
            <mxPoint x="520" y="540" as="sourcePoint" />
            <mxPoint x="750" y="540" as="targetPoint" />
          </mxGeometry>
        </mxCell>
        <mxCell id="iM3YfhOh1Oi1pRqdzWGs-29" value="return" style="text;html=1;align=center;verticalAlign=middle;resizable=0;points=[];autosize=1;strokeColor=none;fillColor=none;" vertex="1" parent="1">
          <mxGeometry x="610" y="510" width="50" height="30" as="geometry" />
        </mxCell>
        <mxCell id="iM3YfhOh1Oi1pRqdzWGs-32" style="edgeStyle=orthogonalEdgeStyle;rounded=0;orthogonalLoop=1;jettySize=auto;html=1;exitX=0.5;exitY=1;exitDx=0;exitDy=0;entryX=0.5;entryY=0;entryDx=0;entryDy=0;dashed=1;" edge="1" parent="1" source="iM3YfhOh1Oi1pRqdzWGs-30" target="iM3YfhOh1Oi1pRqdzWGs-31">
          <mxGeometry relative="1" as="geometry" />
        </mxCell>
        <mxCell id="iM3YfhOh1Oi1pRqdzWGs-30" value="Data_list_student_short" style="rounded=0;whiteSpace=wrap;html=1;" vertex="1" parent="1">
          <mxGeometry x="970" y="140" width="140" height="60" as="geometry" />
        </mxCell>
        <mxCell id="iM3YfhOh1Oi1pRqdzWGs-31" value="Data_list_student_short" style="rounded=0;whiteSpace=wrap;html=1;" vertex="1" parent="1">
          <mxGeometry x="970" y="860" width="140" height="60" as="geometry" />
        </mxCell>
        <mxCell id="iM3YfhOh1Oi1pRqdzWGs-33" value="" style="endArrow=classic;html=1;rounded=0;" edge="1" parent="1">
          <mxGeometry width="50" height="50" relative="1" as="geometry">
            <mxPoint x="520" y="580" as="sourcePoint" />
            <mxPoint x="1040" y="580" as="targetPoint" />
          </mxGeometry>
        </mxCell>
        <mxCell id="iM3YfhOh1Oi1pRqdzWGs-34" value="add_observer(view)" style="text;html=1;align=center;verticalAlign=middle;resizable=0;points=[];autosize=1;strokeColor=none;fillColor=none;" vertex="1" parent="1">
          <mxGeometry x="740" y="558" width="130" height="30" as="geometry" />
        </mxCell>
        <mxCell id="iM3YfhOh1Oi1pRqdzWGs-35" value="" style="endArrow=classic;html=1;rounded=0;" edge="1" parent="1">
          <mxGeometry width="50" height="50" relative="1" as="geometry">
            <mxPoint x="520" y="600" as="sourcePoint" />
            <mxPoint x="1040" y="600" as="targetPoint" />
          </mxGeometry>
        </mxCell>
        <mxCell id="iM3YfhOh1Oi1pRqdzWGs-36" value="data=(data)" style="text;html=1;align=center;verticalAlign=middle;resizable=0;points=[];autosize=1;strokeColor=none;fillColor=none;" vertex="1" parent="1">
          <mxGeometry x="760" y="580" width="90" height="30" as="geometry" />
        </mxCell>
        <mxCell id="iM3YfhOh1Oi1pRqdzWGs-37" value="" style="endArrow=classic;html=1;rounded=0;" edge="1" parent="1">
          <mxGeometry width="50" height="50" relative="1" as="geometry">
            <mxPoint x="520" y="620" as="sourcePoint" />
            <mxPoint x="1040" y="620" as="targetPoint" />
          </mxGeometry>
        </mxCell>
        <mxCell id="iM3YfhOh1Oi1pRqdzWGs-38" value="selected=(selected)" style="text;html=1;align=center;verticalAlign=middle;resizable=0;points=[];autosize=1;strokeColor=none;fillColor=none;" vertex="1" parent="1">
          <mxGeometry x="740" y="600" width="130" height="30" as="geometry" />
        </mxCell>
        <mxCell id="iM3YfhOh1Oi1pRqdzWGs-39" value="" style="endArrow=none;html=1;rounded=0;startArrow=classic;startFill=1;endFill=0;dashed=1;" edge="1" parent="1">
          <mxGeometry width="50" height="50" relative="1" as="geometry">
            <mxPoint x="520" y="680" as="sourcePoint" />
            <mxPoint x="1040" y="680" as="targetPoint" />
          </mxGeometry>
        </mxCell>
        <mxCell id="iM3YfhOh1Oi1pRqdzWGs-40" value="return" style="text;html=1;align=center;verticalAlign=middle;resizable=0;points=[];autosize=1;strokeColor=none;fillColor=none;" vertex="1" parent="1">
          <mxGeometry x="780" y="660" width="50" height="30" as="geometry" />
        </mxCell>
        <mxCell id="iM3YfhOh1Oi1pRqdzWGs-42" value="" style="endArrow=classic;html=1;rounded=0;" edge="1" parent="1">
          <mxGeometry width="50" height="50" relative="1" as="geometry">
            <mxPoint x="520" y="640" as="sourcePoint" />
            <mxPoint x="1040" y="640" as="targetPoint" />
          </mxGeometry>
        </mxCell>
        <mxCell id="iM3YfhOh1Oi1pRqdzWGs-43" value="count=(count)" style="text;html=1;align=center;verticalAlign=middle;resizable=0;points=[];autosize=1;strokeColor=none;fillColor=none;" vertex="1" parent="1">
          <mxGeometry x="755" y="620" width="100" height="30" as="geometry" />
        </mxCell>
        <mxCell id="iM3YfhOh1Oi1pRqdzWGs-44" value="" style="endArrow=classic;html=1;rounded=0;" edge="1" parent="1">
          <mxGeometry width="50" height="50" relative="1" as="geometry">
            <mxPoint x="520" y="730" as="sourcePoint" />
            <mxPoint x="1040" y="730" as="targetPoint" />
          </mxGeometry>
        </mxCell>
        <mxCell id="iM3YfhOh1Oi1pRqdzWGs-45" value="notify" style="text;html=1;align=center;verticalAlign=middle;resizable=0;points=[];autosize=1;strokeColor=none;fillColor=none;" vertex="1" parent="1">
          <mxGeometry x="780" y="708" width="50" height="30" as="geometry" />
        </mxCell>
        <mxCell id="iM3YfhOh1Oi1pRqdzWGs-46" value="" style="endArrow=none;html=1;rounded=0;startArrow=classic;startFill=1;endFill=0;" edge="1" parent="1">
          <mxGeometry width="50" height="50" relative="1" as="geometry">
            <mxPoint x="280" y="780" as="sourcePoint" />
            <mxPoint x="1040" y="780" as="targetPoint" />
          </mxGeometry>
        </mxCell>
        <mxCell id="iM3YfhOh1Oi1pRqdzWGs-47" value="set_table_params(column_names, whole_entities_count)" style="text;html=1;align=center;verticalAlign=middle;resizable=0;points=[];autosize=1;strokeColor=none;fillColor=none;" vertex="1" parent="1">
          <mxGeometry x="460" y="748" width="330" height="30" as="geometry" />
        </mxCell>
        <mxCell id="iM3YfhOh1Oi1pRqdzWGs-49" value="" style="endArrow=none;html=1;rounded=0;startArrow=classic;startFill=1;endFill=0;" edge="1" parent="1">
          <mxGeometry width="50" height="50" relative="1" as="geometry">
            <mxPoint x="280" y="810" as="sourcePoint" />
            <mxPoint x="1040" y="810" as="targetPoint" />
          </mxGeometry>
        </mxCell>
        <mxCell id="iM3YfhOh1Oi1pRqdzWGs-50" value="set_table_data(data_table)" style="text;html=1;align=center;verticalAlign=middle;resizable=0;points=[];autosize=1;strokeColor=none;fillColor=none;" vertex="1" parent="1">
          <mxGeometry x="540" y="778" width="170" height="30" as="geometry" />
        </mxCell>
      </root>
    </mxGraphModel>
  </diagram>
</mxfile>
